<svg viewBox="80.328 92.643 287.952 351.352" width="287.952" height="351.352" >
  <g transform="matrix(0.694715, 0, 0, 0.694715, 80.327698, 92.642578)">
    <path className="cls-1" d="M354.61,47.55H99.86V505.75h.56l78.48-53.14,78.53-53.17,78.53,53.17,78.53,53.14V107.43c0-33.07-26.81-59.89-59.89-59.89Zm-83.76,221.98l-13.67,27.7-13.67-27.7-30.58-4.44,22.12-21.56-5.22-30.45,27.35,14.38,27.34-14.38-5.22,30.45,22.12,21.56-30.58,4.44Z"></path>
    <path className="cls-1" d="M310.3,36.84h13.67C318.27,4.17,286.22,0,261.48,0H0V464.93l.24,40.81H7.03l82.65-79.93v-21.93L13.95,476.48,13.46,13.46h248.01c30.16,0,44.84,6.76,48.82,23.37Z"></path>
  </g>
</svg>